<svg xmlns="http://www.w3.org/2000/svg" xmlns:xlink="http://www.w3.org/1999/xlink" width="500" zoomAndPan="magnify" viewBox="0 0 375 374.999991" height="500" preserveAspectRatio="xMidYMid meet" version="1.0"><defs><clipPath id="a15763bb52"><path d="M 191 63 L 317.152344 63 L 317.152344 314.398438 L 191 314.398438 Z M 191 63 " clip-rule="nonzero"/></clipPath><clipPath id="373bd62777"><path d="M 131 268 L 136 268 L 136 314.398438 L 131 314.398438 Z M 131 268 " clip-rule="nonzero"/></clipPath><clipPath id="d6d83f8382"><path d="M 57.652344 60.898438 L 188 60.898438 L 188 314.398438 L 57.652344 314.398438 Z M 57.652344 60.898438 " clip-rule="nonzero"/></clipPath></defs><rect x="-37.5" width="450" fill="#ffffff" y="-37.499999" height="449.999989" fill-opacity="1"/><rect x="-37.5" width="450" fill="#ffffff" y="-37.499999" height="449.999989" fill-opacity="1"/><rect x="-37.5" width="450" fill="#ffffff" y="-37.499999" height="449.999989" fill-opacity="1"/><path fill="#f89dd2" d="M 174.132812 143.488281 L 182.65625 174.800781 L 194.121094 216.898438 L 228.492188 216.898438 L 213.601562 166 L 205.164062 137.140625 L 174.132812 143.488281 " fill-opacity="1" fill-rule="nonzero"/><path fill="#fbd63c" d="M 205.164062 137.140625 L 213.601562 166 L 182.65625 174.800781 L 168.167969 121.566406 L 184.410156 121.566406 C 194.007812 121.566406 202.460938 127.910156 205.164062 137.140625 " fill-opacity="1" fill-rule="nonzero"/><path fill="#8b98d5" d="M 193.890625 65.234375 L 314.992188 65.234375 L 314.992188 312.234375 L 193.890625 312.234375 L 193.890625 65.234375 " fill-opacity="1" fill-rule="nonzero"/><path fill="#6778c4" d="M 193.890625 65.234375 L 314.992188 65.234375 L 314.992188 91.234375 L 193.890625 91.234375 L 193.890625 65.234375 " fill-opacity="1" fill-rule="nonzero"/><path fill="#4e61b6" d="M 213.355469 84.734375 L 200.378906 84.734375 L 200.378906 71.734375 L 213.355469 71.734375 L 213.355469 84.734375 " fill-opacity="1" fill-rule="nonzero"/><path fill="#4e61b6" d="M 271.742188 117.234375 C 271.742188 123.644531 268.257812 129.25 263.089844 132.246094 C 260.542969 133.71875 257.59375 134.566406 254.441406 134.566406 C 251.289062 134.566406 248.339844 133.71875 245.792969 132.246094 C 240.625 129.25 237.140625 123.644531 237.140625 117.234375 C 237.140625 107.660156 244.886719 99.898438 254.441406 99.898438 C 263.996094 99.898438 271.742188 107.660156 271.742188 117.234375 " fill-opacity="1" fill-rule="nonzero"/><path fill="#4356af" d="M 263.089844 125.898438 L 263.089844 132.246094 C 260.542969 133.71875 257.59375 134.566406 254.441406 134.566406 C 251.289062 134.566406 248.339844 133.71875 245.792969 132.246094 L 245.792969 125.898438 C 245.792969 121.113281 249.664062 117.234375 254.441406 117.234375 C 256.832031 117.234375 258.996094 118.203125 260.5625 119.769531 C 262.125 121.339844 263.089844 123.503906 263.089844 125.898438 " fill-opacity="1" fill-rule="nonzero"/><path fill="#4356af" d="M 258.765625 112.898438 C 258.765625 115.292969 256.828125 117.234375 254.441406 117.234375 C 252.050781 117.234375 250.117188 115.292969 250.117188 112.898438 C 250.117188 110.507812 252.050781 108.566406 254.441406 108.566406 C 256.828125 108.566406 258.765625 110.507812 258.765625 112.898438 " fill-opacity="1" fill-rule="nonzero"/><path fill="#4e61b6" d="M 280.390625 186.566406 L 228.492188 186.566406 L 228.492188 182.234375 C 228.492188 167.871094 240.109375 156.234375 254.441406 156.234375 C 268.773438 156.234375 280.390625 167.871094 280.390625 182.234375 Z M 254.441406 147.566406 C 235.332031 147.566406 219.839844 163.085938 219.839844 182.234375 L 219.839844 199.566406 L 289.042969 199.566406 L 289.042969 182.234375 C 289.042969 163.085938 273.550781 147.566406 254.441406 147.566406 " fill-opacity="1" fill-rule="nonzero"/><path fill="#4e61b6" d="M 215.515625 186.566406 L 293.367188 186.566406 L 293.367188 260.234375 L 215.515625 260.234375 L 215.515625 186.566406 " fill-opacity="1" fill-rule="nonzero"/><path fill="#4356af" d="M 263.089844 208.234375 C 263.089844 211.441406 261.351562 214.230469 258.765625 215.730469 L 258.765625 242.898438 C 258.765625 244.097656 258.28125 245.179688 257.5 245.964844 C 256.71875 246.746094 255.636719 247.234375 254.441406 247.234375 C 252.050781 247.234375 250.117188 245.296875 250.117188 242.898438 L 250.117188 215.730469 C 247.40625 214.15625 245.625 211.164062 245.800781 207.761719 C 245.878906 206.363281 246.292969 205.054688 246.96875 203.898438 C 248.40625 201.429688 251.042969 199.71875 254.023438 199.578125 C 257.398438 199.421875 260.378906 201.199219 261.929688 203.898438 C 262.667969 205.171875 263.089844 206.652344 263.089844 208.234375 " fill-opacity="1" fill-rule="nonzero"/><path fill="#fbd63c" d="M 180.917969 121.566406 L 85.777344 121.566406 L 85.765625 247.234375 L 180.902344 247.234375 L 180.917969 121.566406 " fill-opacity="1" fill-rule="nonzero"/><path fill="#f89dd2" d="M 124.691406 125.898438 L 124.691406 96.386719 L 141.992188 108.664062 L 141.992188 125.898438 C 141.992188 130.6875 138.117188 134.566406 133.339844 134.566406 C 128.5625 134.566406 124.691406 130.6875 124.691406 125.898438 " fill-opacity="1" fill-rule="nonzero"/><path fill="#2e4fa9" d="M 180.917969 312.234375 L 180.917969 247.234375 L 85.765625 247.234375 L 85.765625 312.234375 L 180.917969 312.234375 " fill-opacity="1" fill-rule="nonzero"/><path fill="#f89dd2" d="M 176.574219 203.898438 C 178.96875 203.898438 180.910156 205.851562 180.898438 208.25 L 180.800781 234.25 C 180.796875 236.640625 178.863281 238.566406 176.476562 238.566406 L 96.964844 238.566406 C 90.761719 238.566406 84.773438 237.019531 79.460938 234.167969 C 74.160156 231.324219 69.546875 227.191406 66.101562 222.019531 C 62.007812 215.859375 59.835938 208.613281 59.875 201.207031 L 60 177.898438 L 94.574219 177.898438 L 94.417969 203.898438 L 150.640625 203.898438 L 154.964844 190.898438 L 156.929688 190.898438 C 160.21875 190.898438 162.542969 194.128906 161.503906 197.253906 L 159.292969 203.898438 L 176.574219 203.898438 " fill-opacity="1" fill-rule="nonzero"/><path fill="#6778c4" d="M 302.015625 299.234375 L 206.867188 299.234375 L 206.867188 273.234375 L 302.015625 273.234375 L 302.015625 299.234375 " fill-opacity="1" fill-rule="nonzero"/><path fill="#4e61b6" d="M 224.167969 286.234375 C 224.167969 288.625 222.230469 290.566406 219.839844 290.566406 C 217.453125 290.566406 215.515625 288.625 215.515625 286.234375 C 215.515625 283.839844 217.453125 281.898438 219.839844 281.898438 C 222.230469 281.898438 224.167969 283.839844 224.167969 286.234375 " fill-opacity="1" fill-rule="nonzero"/><path fill="#4e61b6" d="M 241.464844 286.234375 C 241.464844 288.625 239.53125 290.566406 237.140625 290.566406 C 234.753906 290.566406 232.816406 288.625 232.816406 286.234375 C 232.816406 283.839844 234.753906 281.898438 237.140625 281.898438 C 239.53125 281.898438 241.464844 283.839844 241.464844 286.234375 " fill-opacity="1" fill-rule="nonzero"/><path fill="#4e61b6" d="M 258.765625 286.234375 C 258.765625 288.625 256.828125 290.566406 254.441406 290.566406 C 252.050781 290.566406 250.117188 288.625 250.117188 286.234375 C 250.117188 283.839844 252.050781 281.898438 254.441406 281.898438 C 256.828125 281.898438 258.765625 283.839844 258.765625 286.234375 " fill-opacity="1" fill-rule="nonzero"/><path fill="#4e61b6" d="M 276.066406 286.234375 C 276.066406 288.625 274.128906 290.566406 271.742188 290.566406 C 269.351562 290.566406 267.417969 288.625 267.417969 286.234375 C 267.417969 283.839844 269.351562 281.898438 271.742188 281.898438 C 274.128906 281.898438 276.066406 283.839844 276.066406 286.234375 " fill-opacity="1" fill-rule="nonzero"/><path fill="#4e61b6" d="M 293.367188 286.234375 C 293.367188 288.625 291.429688 290.566406 289.042969 290.566406 C 286.652344 290.566406 284.714844 288.625 284.714844 286.234375 C 284.714844 283.839844 286.652344 281.898438 289.042969 281.898438 C 291.429688 281.898438 293.367188 283.839844 293.367188 286.234375 " fill-opacity="1" fill-rule="nonzero"/><path fill="#f89dd2" d="M 124.691406 71.734375 L 150.640625 71.734375 L 150.640625 100.984375 C 150.640625 106.367188 146.285156 110.734375 140.910156 110.734375 C 131.953125 110.734375 124.691406 103.457031 124.691406 94.484375 L 124.691406 71.734375 " fill-opacity="1" fill-rule="nonzero"/><path fill="#2e4fa9" d="M 159.292969 67.398438 L 159.292969 70.648438 C 159.292969 76.035156 154.933594 80.398438 149.558594 80.398438 L 135.503906 80.398438 C 135.503906 87.578125 129.695312 93.398438 122.527344 93.398438 L 118.203125 93.398438 L 118.203125 72.5 C 118.203125 67.289062 122.417969 63.066406 127.621094 63.066406 L 159.292969 63.066406 L 159.292969 67.398438 " fill-opacity="1" fill-rule="nonzero"/><path fill="#f89dd2" d="M 131.179688 93.398438 C 131.179688 96.992188 128.273438 99.898438 124.691406 99.898438 C 121.109375 99.898438 118.203125 96.992188 118.203125 93.398438 C 118.203125 89.808594 121.109375 86.898438 124.691406 86.898438 C 128.273438 86.898438 131.179688 89.808594 131.179688 93.398438 " fill-opacity="1" fill-rule="nonzero"/><path fill="#6778c4" d="M 263.089844 208.234375 C 263.089844 211.441406 261.351562 214.230469 258.765625 215.730469 L 258.765625 216.898438 L 206.867188 216.898438 L 206.867188 203.898438 L 261.929688 203.898438 C 262.667969 205.171875 263.089844 206.652344 263.089844 208.234375 " fill-opacity="1" fill-rule="nonzero"/><path fill="#6778c4" d="M 187.402344 221.234375 C 181.429688 221.234375 176.589844 216.386719 176.589844 210.398438 C 176.589844 204.414062 181.429688 199.566406 187.402344 199.566406 C 193.378906 199.566406 198.214844 204.414062 198.214844 210.398438 C 198.214844 216.386719 193.378906 221.234375 187.402344 221.234375 Z M 196.054688 182.234375 C 180.527344 182.234375 167.941406 194.84375 167.941406 210.398438 C 167.941406 225.957031 180.527344 238.566406 196.054688 238.566406 C 211.578125 238.566406 224.167969 225.957031 224.167969 210.398438 C 224.167969 194.84375 211.578125 182.234375 196.054688 182.234375 " fill-opacity="1" fill-rule="nonzero"/><path fill="#f89dd2" d="M 60.164062 147.566406 L 60 177.898438 L 59.875 201.207031 C 59.835938 208.613281 62.007812 215.859375 66.101562 222.019531 C 69.546875 227.191406 74.160156 231.324219 79.460938 234.167969 C 84.773438 237.019531 90.761719 238.566406 96.964844 238.566406 L 176.476562 238.566406 C 178.863281 238.566406 180.796875 236.640625 180.800781 234.25 L 180.898438 208.25 C 180.910156 205.851562 178.96875 203.898438 176.574219 203.898438 L 159.292969 203.898438 L 161.503906 197.253906 C 162.542969 194.128906 160.21875 190.898438 156.929688 190.898438 L 154.964844 190.898438 L 150.640625 203.898438 L 94.417969 203.898438 L 94.574219 177.898438 L 94.753906 147.5625 L 60.164062 147.566406 " fill-opacity="1" fill-rule="nonzero"/><path fill="#fbd63c" d="M 94.910156 121.566406 L 94.574219 177.898438 L 60 177.898438 L 60.191406 143.113281 C 60.253906 131.199219 69.921875 121.566406 81.816406 121.566406 L 94.910156 121.566406 " fill-opacity="1" fill-rule="nonzero"/><g clip-path="url(#a15763bb52)"><path fill="#231f20" d="M 196.054688 89.066406 L 196.054688 67.398438 L 312.828125 67.398438 L 312.828125 89.066406 Z M 314.992188 63.066406 L 193.890625 63.066406 C 192.695312 63.066406 191.730469 64.035156 191.730469 65.234375 L 191.730469 173.566406 C 191.730469 174.765625 192.695312 175.734375 193.890625 175.734375 C 195.085938 175.734375 196.054688 174.765625 196.054688 173.566406 L 196.054688 93.398438 L 312.828125 93.398438 L 312.828125 310.066406 L 196.054688 310.066406 L 196.054688 247.234375 C 196.054688 246.035156 195.085938 245.066406 193.890625 245.066406 C 192.695312 245.066406 191.730469 246.035156 191.730469 247.234375 L 191.730469 312.234375 C 191.730469 313.429688 192.695312 314.398438 193.890625 314.398438 L 314.992188 314.398438 C 316.1875 314.398438 317.152344 313.429688 317.152344 312.234375 L 317.152344 65.234375 C 317.152344 64.035156 316.1875 63.066406 314.992188 63.066406 " fill-opacity="1" fill-rule="nonzero"/></g><path fill="#231f20" d="M 209.027344 80.398438 L 204.703125 80.398438 L 204.703125 76.066406 L 209.027344 76.066406 Z M 211.191406 71.734375 L 202.542969 71.734375 C 201.347656 71.734375 200.378906 72.703125 200.378906 73.898438 L 200.378906 82.566406 C 200.378906 83.765625 201.347656 84.734375 202.542969 84.734375 L 211.191406 84.734375 C 212.386719 84.734375 213.355469 83.765625 213.355469 82.566406 L 213.355469 73.898438 C 213.355469 72.703125 212.386719 71.734375 211.191406 71.734375 " fill-opacity="1" fill-rule="nonzero"/><path fill="#231f20" d="M 219.839844 76.066406 L 232.816406 76.066406 C 234.011719 76.066406 234.980469 75.097656 234.980469 73.898438 C 234.980469 72.703125 234.011719 71.734375 232.816406 71.734375 L 219.839844 71.734375 C 218.644531 71.734375 217.679688 72.703125 217.679688 73.898438 C 217.679688 75.097656 218.644531 76.066406 219.839844 76.066406 " fill-opacity="1" fill-rule="nonzero"/><path fill="#231f20" d="M 250.117188 80.398438 L 219.839844 80.398438 C 218.644531 80.398438 217.679688 81.367188 217.679688 82.566406 C 217.679688 83.765625 218.644531 84.734375 219.839844 84.734375 L 250.117188 84.734375 C 251.3125 84.734375 252.277344 83.765625 252.277344 82.566406 C 252.277344 81.367188 251.3125 80.398438 250.117188 80.398438 " fill-opacity="1" fill-rule="nonzero"/><path fill="#231f20" d="M 239.304688 117.234375 C 239.304688 108.871094 246.09375 102.066406 254.441406 102.066406 C 262.785156 102.066406 269.578125 108.871094 269.578125 117.234375 C 269.578125 121.355469 267.925781 125.097656 265.253906 127.832031 L 265.253906 125.898438 C 265.253906 123.007812 264.132812 120.289062 262.089844 118.234375 C 261.40625 117.550781 260.644531 116.984375 259.832031 116.515625 C 260.523438 115.480469 260.929688 114.238281 260.929688 112.898438 C 260.929688 109.316406 258.019531 106.398438 254.441406 106.398438 C 250.863281 106.398438 247.953125 109.316406 247.953125 112.898438 C 247.953125 114.238281 248.359375 115.484375 249.054688 116.519531 C 245.820312 118.394531 243.628906 121.890625 243.628906 125.898438 L 243.628906 127.832031 C 240.957031 125.097656 239.304688 121.355469 239.304688 117.234375 Z M 252.277344 112.898438 C 252.277344 111.703125 253.246094 110.734375 254.441406 110.734375 C 255.632812 110.734375 256.605469 111.703125 256.605469 112.898438 C 256.605469 114.09375 255.632812 115.066406 254.441406 115.066406 C 253.246094 115.066406 252.277344 114.09375 252.277344 112.898438 Z M 247.953125 130.933594 L 247.953125 125.898438 C 247.953125 122.316406 250.863281 119.398438 254.441406 119.398438 C 256.175781 119.398438 257.804688 120.074219 259.027344 121.296875 C 260.253906 122.527344 260.929688 124.164062 260.929688 125.898438 L 260.929688 130.933594 C 258.960938 131.871094 256.761719 132.398438 254.441406 132.398438 C 252.121094 132.398438 249.921875 131.871094 247.953125 130.933594 Z M 273.902344 117.234375 C 273.902344 106.480469 265.171875 97.734375 254.441406 97.734375 C 243.707031 97.734375 234.980469 106.480469 234.980469 117.234375 C 234.980469 127.984375 243.707031 136.734375 254.441406 136.734375 C 265.171875 136.734375 273.902344 127.984375 273.902344 117.234375 " fill-opacity="1" fill-rule="nonzero"/><path fill="#231f20" d="M 225.0625 219.066406 L 247.953125 219.066406 L 247.953125 242.898438 C 247.953125 246.484375 250.863281 249.398438 254.441406 249.398438 C 256.167969 249.398438 257.792969 248.726562 259.035156 247.492188 C 260.257812 246.261719 260.929688 244.628906 260.929688 242.898438 L 260.929688 216.890625 C 263.625 214.855469 265.253906 211.644531 265.253906 208.234375 C 265.253906 205.242188 264.066406 202.460938 261.90625 200.394531 C 259.746094 198.332031 256.917969 197.273438 253.921875 197.414062 C 250.320312 197.582031 246.941406 199.652344 245.125 202.773438 L 244.4375 203.898438 L 225.621094 203.898438 C 224.386719 198.253906 221.578125 193.191406 217.679688 189.199219 L 217.679688 188.734375 L 291.203125 188.734375 L 291.203125 258.066406 L 217.679688 258.066406 L 217.679688 231.601562 C 221.074219 228.125 223.636719 223.84375 225.0625 219.066406 Z M 252.277344 219.066406 L 256.605469 219.066406 L 256.605469 242.898438 C 256.605469 243.476562 256.378906 244.023438 255.980469 244.425781 C 255.566406 244.839844 255.019531 245.066406 254.441406 245.066406 C 253.246094 245.066406 252.277344 244.09375 252.277344 242.898438 Z M 249.652344 203.898438 C 250.804688 202.625 252.421875 201.820312 254.125 201.742188 C 255.917969 201.644531 257.625 202.292969 258.921875 203.53125 C 259.042969 203.648438 259.15625 203.773438 259.269531 203.898438 Z M 226.242188 208.234375 L 260.929688 208.234375 C 260.929688 210.539062 259.683594 212.691406 257.683594 213.855469 C 257.320312 214.066406 257.035156 214.375 256.851562 214.734375 L 226.015625 214.734375 C 226.21875 213.316406 226.328125 211.871094 226.328125 210.398438 C 226.328125 209.667969 226.292969 208.949219 226.242188 208.234375 Z M 278.230469 184.398438 L 230.652344 184.398438 L 230.652344 182.234375 C 230.652344 169.089844 241.324219 158.398438 254.441406 158.398438 C 267.558594 158.398438 278.230469 169.089844 278.230469 182.234375 Z M 222.003906 182.234375 C 222.003906 164.3125 236.554688 149.734375 254.441406 149.734375 C 263.109375 149.734375 271.253906 153.113281 277.378906 159.25 C 283.507812 165.386719 286.878906 173.550781 286.878906 182.234375 L 286.878906 184.398438 L 282.554688 184.398438 L 282.554688 182.234375 C 282.554688 166.703125 269.941406 154.066406 254.441406 154.066406 C 238.941406 154.066406 226.328125 166.703125 226.328125 182.234375 L 226.328125 184.398438 L 222.003906 184.398438 Z M 213.355469 235.273438 L 213.355469 260.234375 C 213.355469 261.429688 214.320312 262.398438 215.515625 262.398438 L 293.367188 262.398438 C 294.5625 262.398438 295.527344 261.429688 295.527344 260.234375 L 295.527344 186.566406 C 295.527344 185.367188 294.5625 184.398438 293.367188 184.398438 L 291.203125 184.398438 L 291.203125 182.234375 C 291.203125 172.390625 287.382812 163.140625 280.441406 156.183594 C 273.5 149.230469 264.265625 145.398438 254.441406 145.398438 C 234.167969 145.398438 217.679688 161.921875 217.679688 182.234375 L 217.679688 184.398438 L 215.515625 184.398438 C 214.640625 184.398438 213.890625 184.921875 213.550781 185.667969 C 208.605469 182.144531 202.570312 180.066406 196.054688 180.066406 C 185.660156 180.066406 176.117188 185.3125 170.519531 194.09375 C 169.875 195.105469 170.171875 196.445312 171.175781 197.089844 C 172.1875 197.730469 173.519531 197.4375 174.164062 196.425781 C 178.960938 188.894531 187.144531 184.398438 196.054688 184.398438 C 210.363281 184.398438 222.003906 196.0625 222.003906 210.398438 C 222.003906 224.738281 210.363281 236.398438 196.054688 236.398438 C 194.027344 236.398438 192.015625 236.164062 190.0625 235.707031 C 188.898438 235.425781 187.734375 236.148438 187.460938 237.316406 C 187.1875 238.480469 187.90625 239.648438 189.070312 239.921875 C 191.34375 240.460938 193.695312 240.734375 196.054688 240.734375 C 202.480469 240.734375 208.445312 238.707031 213.355469 235.273438 " fill-opacity="1" fill-rule="nonzero"/><path fill="#231f20" d="M 196.054688 210.398438 C 196.054688 214.5 193.148438 218.070312 189.148438 218.890625 C 187.980469 219.128906 187.226562 220.273438 187.464844 221.445312 C 187.675781 222.472656 188.574219 223.179688 189.582031 223.179688 C 189.722656 223.179688 189.871094 223.164062 190.015625 223.136719 C 196.019531 221.90625 200.378906 216.546875 200.378906 210.398438 C 200.378906 203.230469 194.558594 197.398438 187.402344 197.398438 C 186.488281 197.398438 185.574219 197.496094 184.683594 197.683594 C 183.515625 197.9375 182.773438 199.089844 183.023438 200.257812 C 183.269531 201.429688 184.417969 202.171875 185.585938 201.925781 C 186.179688 201.796875 186.792969 201.734375 187.402344 201.734375 C 192.171875 201.734375 196.054688 205.621094 196.054688 210.398438 " fill-opacity="1" fill-rule="nonzero"/><path fill="#231f20" d="M 183.074219 149.734375 C 183.074219 148.535156 182.105469 147.566406 180.910156 147.566406 C 179.714844 147.566406 178.746094 148.535156 178.746094 149.734375 L 178.746094 177.898438 C 178.746094 179.097656 179.714844 180.066406 180.90625 180.066406 C 182.101562 180.066406 183.070312 179.097656 183.070312 177.898438 L 183.070312 176.835938 L 185.824219 176.0625 C 186.976562 175.738281 187.648438 174.542969 187.324219 173.390625 C 187 172.238281 185.804688 171.566406 184.65625 171.886719 L 183.074219 172.335938 L 183.074219 149.734375 " fill-opacity="1" fill-rule="nonzero"/><g clip-path="url(#373bd62777)"><path fill="#231f20" d="M 133.339844 268.777344 C 132.144531 268.777344 131.179688 269.75 131.179688 270.945312 L 131.179688 312.234375 C 131.179688 313.429688 132.144531 314.398438 133.339844 314.398438 C 134.535156 314.398438 135.503906 313.429688 135.503906 312.234375 L 135.503906 270.945312 C 135.503906 269.75 134.535156 268.777344 133.339844 268.777344 " fill-opacity="1" fill-rule="nonzero"/></g><g clip-path="url(#d6d83f8382)"><path fill="#231f20" d="M 178.753906 234.242188 C 178.75 235.410156 177.714844 236.398438 176.496094 236.398438 L 96.964844 236.398438 C 85.261719 236.398438 74.398438 230.574219 67.90625 220.816406 C 64.027344 214.992188 62 208.214844 62.039062 201.21875 L 62.152344 180.066406 L 92.402344 180.066406 L 92.253906 203.886719 C 92.25 204.460938 92.476562 205.015625 92.882812 205.425781 C 93.289062 205.835938 93.839844 206.066406 94.417969 206.066406 L 150.640625 206.066406 C 151.574219 206.066406 152.398438 205.46875 152.695312 204.585938 L 156.523438 193.066406 L 156.929688 193.066406 C 157.792969 193.066406 158.578125 193.46875 159.085938 194.171875 C 159.589844 194.875 159.722656 195.75 159.449219 196.570312 L 157.238281 203.214844 C 157.019531 203.875 157.128906 204.601562 157.535156 205.167969 C 157.945312 205.730469 158.597656 206.066406 159.292969 206.066406 L 176.589844 206.066406 C 177.191406 206.066406 177.785156 206.316406 178.21875 206.753906 C 178.628906 207.164062 178.851562 207.691406 178.847656 208.242188 Z M 120.367188 93.398438 C 120.367188 91.011719 122.308594 89.066406 124.691406 89.066406 C 126.351562 89.066406 127.886719 90.039062 128.605469 91.542969 C 128.886719 92.136719 129.421875 92.570312 130.0625 92.71875 C 130.703125 92.871094 131.378906 92.71875 131.894531 92.3125 C 132.371094 91.9375 132.808594 91.550781 133.234375 91.125 C 135.574219 88.769531 137.054688 85.792969 137.515625 82.566406 L 148.480469 82.566406 L 148.480469 100.984375 C 148.480469 105.164062 145.082031 108.566406 140.910156 108.566406 C 138.625 108.566406 136.355469 108.003906 134.351562 106.945312 C 133.292969 106.382812 131.984375 106.785156 131.429688 107.84375 C 130.871094 108.902344 131.273438 110.214844 132.328125 110.773438 C 134.636719 111.996094 137.210938 112.710938 139.828125 112.867188 L 139.828125 123.734375 C 139.828125 127.316406 136.917969 130.234375 133.339844 130.234375 C 131.605469 130.234375 129.976562 129.558594 128.753906 128.335938 C 127.527344 127.105469 126.855469 125.46875 126.855469 123.734375 L 126.855469 99.898438 C 126.855469 98.703125 125.886719 97.734375 124.691406 97.734375 C 122.308594 97.734375 120.367188 95.789062 120.367188 93.398438 Z M 120.367188 72.503906 C 120.367188 68.492188 123.621094 65.234375 127.621094 65.234375 L 157.128906 65.234375 L 157.128906 70.648438 C 157.128906 74.832031 153.734375 78.234375 149.558594 78.234375 L 135.503906 78.234375 C 134.308594 78.234375 133.339844 79.203125 133.339844 80.398438 C 133.339844 82.953125 132.460938 85.375 130.847656 87.316406 C 129.246094 85.695312 127.03125 84.734375 124.691406 84.734375 C 123.117188 84.734375 121.640625 85.15625 120.367188 85.898438 Z M 176.589844 201.734375 L 162.292969 201.734375 L 163.554688 197.941406 C 164.269531 195.785156 163.921875 193.484375 162.59375 191.636719 C 161.265625 189.792969 159.199219 188.734375 156.929688 188.734375 L 154.964844 188.734375 C 154.035156 188.734375 153.210938 189.328125 152.914062 190.214844 L 149.082031 201.734375 L 96.589844 201.734375 L 96.914062 149.746094 C 96.921875 148.550781 95.960938 147.574219 94.765625 147.566406 C 94.761719 147.566406 94.757812 147.566406 94.753906 147.566406 C 93.566406 147.566406 92.597656 148.527344 92.589844 149.71875 L 92.429688 175.734375 L 62.175781 175.734375 L 62.355469 143.128906 C 62.410156 132.433594 71.140625 123.734375 81.816406 123.734375 L 122.527344 123.734375 C 122.527344 126.625 123.652344 129.34375 125.695312 131.398438 C 127.742188 133.441406 130.457031 134.566406 133.339844 134.566406 C 139.304688 134.566406 144.152344 129.707031 144.152344 123.734375 L 185.242188 123.734375 C 186.4375 123.734375 187.402344 122.765625 187.402344 121.566406 C 187.402344 120.367188 186.4375 119.398438 185.242188 119.398438 L 144.152344 119.398438 L 144.152344 112.445312 C 149.140625 111.027344 152.804688 106.425781 152.804688 100.984375 L 152.804688 82.113281 C 157.789062 80.695312 161.453125 76.09375 161.453125 70.648438 L 161.453125 63.066406 C 161.453125 61.867188 160.488281 60.898438 159.292969 60.898438 L 127.621094 60.898438 C 121.234375 60.898438 116.042969 66.105469 116.042969 72.503906 L 116.042969 93.398438 C 116.042969 97.429688 118.800781 100.828125 122.527344 101.792969 L 122.527344 119.398438 L 81.816406 119.398438 C 68.769531 119.398438 58.097656 130.035156 58.03125 143.105469 L 57.714844 201.195312 C 57.671875 209.058594 59.953125 216.675781 64.304688 223.222656 C 69.035156 230.328125 75.828125 235.578125 83.605469 238.390625 L 83.605469 312.234375 C 83.605469 313.429688 84.570312 314.398438 85.765625 314.398438 C 86.960938 314.398438 87.929688 313.429688 87.929688 312.234375 L 87.929688 249.398438 L 178.753906 249.398438 L 178.753906 312.234375 C 178.753906 313.429688 179.722656 314.398438 180.917969 314.398438 C 182.113281 314.398438 183.078125 313.429688 183.078125 312.234375 L 183.078125 247.234375 C 183.078125 247.195312 183.070312 247.160156 183.066406 247.125 L 183.066406 245.066406 C 183.066406 243.871094 182.101562 242.898438 180.90625 242.898438 C 179.710938 242.898438 178.742188 243.867188 178.742188 245.066406 L 87.929688 245.066406 L 87.929688 239.679688 C 90.855469 240.371094 93.882812 240.734375 96.964844 240.734375 L 176.496094 240.734375 C 180.113281 240.734375 183.066406 237.828125 183.078125 234.257812 L 183.171875 208.257812 C 183.179688 206.546875 182.507812 204.925781 181.285156 203.691406 C 180.042969 202.445312 178.332031 201.734375 176.589844 201.734375 " fill-opacity="1" fill-rule="nonzero"/></g><path fill="#231f20" d="M 209.027344 275.398438 L 299.855469 275.398438 L 299.855469 297.066406 L 209.027344 297.066406 Z M 204.703125 273.234375 L 204.703125 299.234375 C 204.703125 300.429688 205.671875 301.398438 206.867188 301.398438 L 302.015625 301.398438 C 303.210938 301.398438 304.179688 300.429688 304.179688 299.234375 L 304.179688 273.234375 C 304.179688 272.035156 303.210938 271.066406 302.015625 271.066406 L 206.867188 271.066406 C 205.671875 271.066406 204.703125 272.035156 204.703125 273.234375 " fill-opacity="1" fill-rule="nonzero"/><path fill="#231f20" d="M 219.839844 288.398438 C 218.648438 288.398438 217.679688 287.429688 217.679688 286.234375 C 217.679688 285.039062 218.648438 284.066406 219.839844 284.066406 C 221.035156 284.066406 222.003906 285.039062 222.003906 286.234375 C 222.003906 287.429688 221.035156 288.398438 219.839844 288.398438 Z M 219.839844 279.734375 C 216.265625 279.734375 213.355469 282.648438 213.355469 286.234375 C 213.355469 289.816406 216.265625 292.734375 219.839844 292.734375 C 223.417969 292.734375 226.328125 289.816406 226.328125 286.234375 C 226.328125 282.648438 223.417969 279.734375 219.839844 279.734375 " fill-opacity="1" fill-rule="nonzero"/><path fill="#231f20" d="M 237.140625 288.398438 C 235.949219 288.398438 234.980469 287.429688 234.980469 286.234375 C 234.980469 285.039062 235.949219 284.066406 237.140625 284.066406 C 238.335938 284.066406 239.304688 285.039062 239.304688 286.234375 C 239.304688 287.429688 238.335938 288.398438 237.140625 288.398438 Z M 237.140625 279.734375 C 233.5625 279.734375 230.652344 282.648438 230.652344 286.234375 C 230.652344 289.816406 233.5625 292.734375 237.140625 292.734375 C 240.71875 292.734375 243.628906 289.816406 243.628906 286.234375 C 243.628906 282.648438 240.71875 279.734375 237.140625 279.734375 " fill-opacity="1" fill-rule="nonzero"/><path fill="#231f20" d="M 254.441406 288.398438 C 253.246094 288.398438 252.277344 287.429688 252.277344 286.234375 C 252.277344 285.039062 253.246094 284.066406 254.441406 284.066406 C 255.632812 284.066406 256.605469 285.039062 256.605469 286.234375 C 256.605469 287.429688 255.632812 288.398438 254.441406 288.398438 Z M 254.441406 279.734375 C 250.863281 279.734375 247.953125 282.648438 247.953125 286.234375 C 247.953125 289.816406 250.863281 292.734375 254.441406 292.734375 C 258.019531 292.734375 260.929688 289.816406 260.929688 286.234375 C 260.929688 282.648438 258.019531 279.734375 254.441406 279.734375 " fill-opacity="1" fill-rule="nonzero"/><path fill="#231f20" d="M 271.742188 288.398438 C 270.546875 288.398438 269.578125 287.429688 269.578125 286.234375 C 269.578125 285.039062 270.546875 284.066406 271.742188 284.066406 C 272.933594 284.066406 273.902344 285.039062 273.902344 286.234375 C 273.902344 287.429688 272.933594 288.398438 271.742188 288.398438 Z M 271.742188 279.734375 C 268.164062 279.734375 265.253906 282.648438 265.253906 286.234375 C 265.253906 289.816406 268.164062 292.734375 271.742188 292.734375 C 275.320312 292.734375 278.230469 289.816406 278.230469 286.234375 C 278.230469 282.648438 275.320312 279.734375 271.742188 279.734375 " fill-opacity="1" fill-rule="nonzero"/><path fill="#231f20" d="M 289.042969 288.398438 C 287.847656 288.398438 286.878906 287.429688 286.878906 286.234375 C 286.878906 285.039062 287.847656 284.066406 289.042969 284.066406 C 290.234375 284.066406 291.203125 285.039062 291.203125 286.234375 C 291.203125 287.429688 290.234375 288.398438 289.042969 288.398438 Z M 289.042969 279.734375 C 285.464844 279.734375 282.554688 282.648438 282.554688 286.234375 C 282.554688 289.816406 285.464844 292.734375 289.042969 292.734375 C 292.617188 292.734375 295.527344 289.816406 295.527344 286.234375 C 295.527344 282.648438 292.617188 279.734375 289.042969 279.734375 " fill-opacity="1" fill-rule="nonzero"/></svg>