<svg xmlns="http://www.w3.org/2000/svg" xmlns:xlink="http://www.w3.org/1999/xlink" width="200" zoomAndPan="magnify" viewBox="0 0 150 449.999984" height="600" preserveAspectRatio="xMidYMid meet" version="1.0"><defs><clipPath id="64f3023084"><path d="M 51.628906 348.003906 L 66.273438 348.003906 L 66.273438 356.007812 L 51.628906 356.007812 Z M 51.628906 348.003906 " clip-rule="nonzero"/></clipPath><clipPath id="5c086f4af0"><path d="M 33.5 246.484375 L 73.109375 246.484375 L 73.109375 356.007812 L 33.5 356.007812 Z M 33.5 246.484375 " clip-rule="nonzero"/></clipPath><clipPath id="9d7e04c3ef"><path d="M 76.457031 252.339844 L 116.761719 252.339844 L 116.761719 356.007812 L 76.457031 356.007812 Z M 76.457031 252.339844 " clip-rule="nonzero"/></clipPath><clipPath id="f952d298c0"><path d="M 72.132812 124.878906 L 116.941406 124.878906 L 116.941406 203.808594 L 72.132812 203.808594 Z M 72.132812 124.878906 " clip-rule="nonzero"/></clipPath><clipPath id="28ce86dd15"><path d="M 32.941406 119 L 115 119 L 115 245 L 32.941406 245 Z M 32.941406 119 " clip-rule="nonzero"/></clipPath><clipPath id="0c90a5a4cd"><path d="M 32.941406 230 L 63 230 L 63 276 L 32.941406 276 Z M 32.941406 230 " clip-rule="nonzero"/></clipPath><clipPath id="7a6a976a23"><path d="M 32.941406 231 L 60 231 L 60 275 L 32.941406 275 Z M 32.941406 231 " clip-rule="nonzero"/></clipPath><clipPath id="36ede5b0db"><path d="M 104.070312 235 L 116.941406 235 L 116.941406 253.734375 L 104.070312 253.734375 Z M 104.070312 235 " clip-rule="nonzero"/></clipPath><clipPath id="1de2ac7e48"><path d="M 93.332031 226.261719 L 116.941406 226.261719 L 116.941406 272.140625 L 93.332031 272.140625 Z M 93.332031 226.261719 " clip-rule="nonzero"/></clipPath><clipPath id="e0fc8289bd"><path d="M 95.144531 226 L 116.941406 226 L 116.941406 269.910156 L 95.144531 269.910156 Z M 95.144531 226 " clip-rule="nonzero"/></clipPath><clipPath id="643008704c"><path d="M 32.941406 124 L 69 124 L 69 204 L 32.941406 204 Z M 32.941406 124 " clip-rule="nonzero"/></clipPath><clipPath id="5bb1692df9"><path d="M 58 93.570312 L 99 93.570312 L 99 140 L 58 140 Z M 58 93.570312 " clip-rule="nonzero"/></clipPath><clipPath id="12b8ec467e"><path d="M 50 93.570312 L 93 93.570312 L 93 132 L 50 132 Z M 50 93.570312 " clip-rule="nonzero"/></clipPath><clipPath id="4d1f8f542b"><path d="M 59 93.570312 L 102 93.570312 L 102 131 L 59 131 Z M 59 93.570312 " clip-rule="nonzero"/></clipPath><clipPath id="8fd311db9e"><path d="M 40 93.570312 L 92 93.570312 L 92 120 L 40 120 Z M 40 93.570312 " clip-rule="nonzero"/></clipPath></defs><path fill="#f2d291" d="M 51.742188 352.101562 L 59.582031 352.101562 L 59.582031 342.941406 L 51.742188 342.941406 L 51.742188 352.101562 " fill-opacity="1" fill-rule="evenodd"/><g clip-path="url(#64f3023084)"><path fill="#2f2e6b" d="M 66.210938 356.007812 C 66.210938 355.226562 66.320312 353.546875 65.316406 352.988281 C 64.582031 352.578125 64.101562 352.773438 63.667969 352.644531 C 63.136719 352.484375 60.164062 348.816406 59.582031 348.140625 L 54.148438 348.140625 L 51.742188 350.65625 L 51.742188 356.007812 L 66.210938 356.007812 " fill-opacity="1" fill-rule="evenodd"/></g><path fill="#4247ca" d="M 50.71875 204.003906 C 45.128906 253.515625 46.253906 303.996094 49.210938 346.300781 C 53.179688 346.300781 57.738281 346.300781 61.707031 346.300781 C 66.191406 305.542969 70.679688 258.007812 72.089844 204.007812 L 50.71875 204.003906 " fill-opacity="1" fill-rule="evenodd"/><path fill="#f2d291" d="M 87.84375 352.339844 L 97.519531 352.339844 L 97.519531 343.183594 L 87.84375 343.183594 L 87.84375 352.339844 " fill-opacity="1" fill-rule="evenodd"/><path fill="#4247ca" d="M 90.40625 204.003906 C 93.640625 230.300781 96.378906 257.304688 97.519531 282.378906 C 98.574219 305.65625 98.148438 327.222656 98.039062 346.300781 L 86.363281 347.90625 C 80.664062 325.109375 79.851562 300.421875 79.132812 281.457031 C 73.386719 262.398438 69.316406 247.027344 67.265625 229.28125 C 66.402344 221.808594 69.4375 211.828125 68.503906 204.003906 L 90.40625 204.003906 " fill-opacity="1" fill-rule="evenodd"/><path fill="#2f2e6b" d="M 87.84375 355.613281 L 115.234375 355.613281 C 115.234375 355.613281 115.105469 353.265625 113.714844 352.816406 C 112.328125 352.367188 102.144531 350.230469 102.144531 350.230469 C 102.144531 350.230469 99.453125 348.339844 98.695312 347.894531 C 97.9375 347.445312 97.226562 347.625 95.824219 348.453125 L 92.496094 350.421875 L 87.84375 350.4375 L 87.84375 355.613281 " fill-opacity="1" fill-rule="evenodd"/><path fill="#2f2e6b" d="M 48.382812 346.496094 L 62.042969 346.496094 L 62.042969 343.128906 L 48.382812 343.128906 L 48.382812 346.496094 " fill-opacity="1" fill-rule="evenodd"/><path fill="#2f2e6b" d="M 85.136719 345.179688 L 98.597656 342.855469 L 98.496094 346.175781 L 85.707031 348.496094 L 85.136719 345.179688 " fill-opacity="1" fill-rule="evenodd"/><path fill="#2f2e6b" d="M 73 233.382812 C 73 233.382812 85.441406 277.117188 85.507812 280.941406 C 85.570312 284.773438 85.515625 338.996094 87.84375 344.710938 C 88.324219 345.894531 88.132812 346.894531 87.527344 347.746094 L 86.363281 347.90625 C 80.664062 325.109375 79.851562 300.421875 79.132812 281.457031 C 75.441406 269.214844 72.441406 258.496094 70.226562 247.691406 L 70.257812 247.691406 L 73 233.382812 " fill-opacity="1" fill-rule="evenodd"/><path stroke-linecap="butt" transform="matrix(0.0139465, 0, 0, -0.0139454, 32.942011, 356.008448)" fill="none" stroke-linejoin="miter" d="M 2675.07188 7757.995575 L 2917.347523 9029.978926 " stroke="#2f2e6b" stroke-width="42.027" stroke-opacity="1" stroke-miterlimit="22.926001"/><g clip-path="url(#5c086f4af0)"><path stroke-linecap="butt" transform="matrix(0.0139465, 0, 0, -0.0139454, 32.942011, 356.008477)" fill="none" stroke-linejoin="miter" d="M 1427.842474 866.710552 C 1360.901574 1446.820074 1450.24947 5129.156999 1517.19037 6490.215505 " stroke="#2f2e6b" stroke-width="42.027" stroke-opacity="1" stroke-miterlimit="22.926001"/></g><g clip-path="url(#9d7e04c3ef)"><path stroke-linecap="butt" transform="matrix(0.0139465, 0, 0, -0.0139454, 32.942011, 356.008477)" fill="none" stroke-linejoin="miter" d="M 4619.158857 911.248174 C 4686.099757 1513.766562 4574.344865 5374.534083 4485.277057 6066.407825 " stroke="#2f2e6b" stroke-width="42.027" stroke-opacity="1" stroke-miterlimit="22.926001"/></g><path fill="#f2d291" d="M 95.15625 143.894531 C 101.683594 145.945312 106.167969 185.550781 106.167969 199.878906 C 106.167969 214.199219 108.207031 230.621094 109.1875 235.765625 C 107.519531 236.660156 105.851562 237.554688 104.183594 238.449219 C 97.855469 225.195312 95.605469 209.964844 94.609375 203.632812 C 93.609375 197.304688 91.25 174.066406 91.25 174.066406 C 91.25 174.066406 91.160156 152.886719 95.15625 143.894531 " fill-opacity="1" fill-rule="evenodd"/><path fill="#ffffff" d="M 95.15625 143.894531 C 100.011719 145.417969 105.988281 165.882812 107.863281 183.03125 L 92.382812 184.738281 C 91.492188 178.996094 91.25 174.066406 91.25 174.066406 C 91.25 174.066406 91.160156 152.886719 95.15625 143.894531 " fill-opacity="1" fill-rule="evenodd"/><g clip-path="url(#f952d298c0)"><path stroke-linecap="butt" transform="matrix(0.0139465, 0, 0, -0.0139454, 32.942011, 356.008477)" fill="none" stroke-linejoin="miter" d="M 4460.909449 15210.345645 C 4809.058147 15101.102423 5237.591942 13633.601803 5372.033917 12403.915274 L 4262.047361 12281.506843 C 4198.187423 12693.269758 4180.822001 13046.769621 4180.822001 13046.769621 C 4180.822001 13046.769621 4174.37999 14565.530523 4460.909449 15210.345645 Z M 4460.909449 15210.345645 " stroke="#2f2e6b" stroke-width="42.027" stroke-opacity="1" stroke-miterlimit="22.926001"/></g><path fill="#ffffff" d="M 47.636719 222.871094 C 65.863281 219.332031 83.445312 231.242188 93.304688 222.871094 L 95.15625 143.894531 C 88.480469 140.175781 80.074219 138.214844 70.5625 138.214844 C 61.054688 138.214844 52.648438 140.175781 45.96875 143.894531 L 50.039062 175.308594 C 49.132812 192.769531 48.542969 205.410156 47.636719 222.871094 " fill-opacity="1" fill-rule="evenodd"/><g clip-path="url(#28ce86dd15)"><path stroke-linecap="butt" transform="matrix(0.0139465, 0, 0, -0.0139454, 32.942011, 356.008448)" fill="none" stroke-linejoin="miter" d="M 1053.645644 9547.063547 C 2360.533676 9800.843973 3621.20728 8946.786004 4328.147999 9547.063547 L 4460.909449 15210.344627 C 3982.24 15477.010152 3379.491812 15617.625797 2697.478876 15617.625797 C 2015.746028 15617.625797 1412.99784 15477.010152 934.048304 15210.344627 L 1225.899424 12957.693205 C 1160.919136 11705.597725 1118.625932 10799.159028 1053.645644 9547.063547 Z M 1053.645644 9547.063547 " stroke="#2f2e6b" stroke-width="42.027" stroke-opacity="1" stroke-miterlimit="22.926001"/></g><path fill="#f2d291" d="M 45.96875 143.894531 C 39.445312 145.945312 33.964844 185.304688 33.964844 199.628906 C 33.964844 213.953125 35.960938 238.933594 35.960938 238.933594 L 41.554688 238.933594 C 41.554688 238.933594 44.773438 206.722656 45.773438 200.394531 C 46.769531 194.066406 49.878906 174.066406 49.878906 174.066406 C 49.878906 174.066406 49.96875 152.886719 45.96875 143.894531 " fill-opacity="1" fill-rule="evenodd"/><path fill="#f2d291" d="M 78.386719 138.671875 C 78.386719 149.789062 62.738281 149.789062 62.738281 138.671875 L 62.714844 119.839844 L 76.921875 121.839844 L 78.386719 138.671875 " fill-opacity="1" fill-rule="evenodd"/><path fill="#f2d291" d="M 41.554688 238.933594 C 42.019531 240.515625 43.519531 243.683594 43.785156 244.96875 C 43.871094 245.386719 43.902344 246.21875 44.0625 248.25 C 44.363281 250.289062 44.96875 252.351562 44.96875 252.351562 C 44.96875 252.351562 44.121094 252.46875 43.640625 251.820312 C 43.160156 251.167969 42.394531 249.820312 42.269531 248.925781 C 42.148438 248.03125 42.066406 246.628906 41.960938 246.320312 C 41.511719 247.472656 41.195312 248.664062 41.195312 248.664062 C 41.410156 249.921875 41.84375 251.507812 42.03125 252.429688 C 42.453125 252.921875 43.261719 254.277344 43.261719 254.277344 C 43.4375 254.285156 44.371094 255.230469 44.496094 255.671875 C 43.972656 255.996094 43.445312 256.074219 43.445312 256.074219 C 43.566406 256.230469 43.613281 256.417969 43.578125 256.578125 L 41.863281 256.421875 L 40.386719 255.582031 L 39.664062 255.554688 L 36.886719 253.332031 L 35.609375 252.078125 L 35.230469 247.902344 C 35.230469 247.902344 35.945312 241.753906 35.953125 240.84375 C 35.953125 240.613281 35.957031 239.898438 35.960938 238.933594 L 41.554688 238.933594 " fill-opacity="1" fill-rule="evenodd"/><g clip-path="url(#0c90a5a4cd)"><path stroke-linecap="butt" transform="matrix(0.0139465, 0, 0, -0.0139454, 32.942011, 356.008448)" fill="none" stroke-linejoin="miter" d="M 753.111812 7166.121358 L 694.573536 7182.928009 L 511.396345 7373.683495 L 459.300079 7640.909241 " stroke="#2f2e6b" stroke-width="42.027" stroke-opacity="1" stroke-miterlimit="22.926001"/></g><g clip-path="url(#7a6a976a23)"><path stroke-linecap="butt" transform="matrix(0.0139465, 0, 0, -0.0139454, 32.942011, 356.008448)" fill="none" stroke-linejoin="miter" d="M 516.998093 7195.813107 L 387.87778 7339.790082 L 337.462039 7581.245631 " stroke="#2f2e6b" stroke-width="42.027" stroke-opacity="1" stroke-miterlimit="22.926001"/></g><g clip-path="url(#36ede5b0db)"><path fill="#f2d291" d="M 104.183594 238.449219 C 104.785156 239.980469 105.546875 243.402344 106.128906 244.578125 C 106.316406 244.964844 106.800781 245.636719 107.921875 247.335938 C 108.9375 249.132812 109.722656 251.136719 109.722656 251.136719 C 109.722656 251.136719 110.464844 250.707031 110.445312 249.898438 C 110.425781 249.089844 110.203125 247.554688 109.75 246.773438 C 109.296875 245.992188 108.5 244.835938 108.394531 244.523438 C 109.460938 245.160156 110.441406 245.90625 110.441406 245.90625 C 111.042969 247.03125 111.671875 248.550781 112.089844 249.394531 C 112.0625 250.039062 112.253906 251.605469 112.253906 251.605469 C 112.121094 251.71875 111.964844 253.039062 112.136719 253.460938 C 112.746094 253.398438 113.214844 253.136719 113.214844 253.136719 C 113.214844 253.335938 113.289062 253.511719 113.414062 253.617188 L 114.671875 252.441406 L 115.328125 250.871094 L 115.878906 250.40625 L 116.707031 246.949219 L 116.945312 245.171875 L 114.679688 241.644531 C 114.679688 241.644531 110.339844 237.230469 109.777344 236.511719 C 109.632812 236.332031 109.191406 235.773438 108.597656 235.015625 L 104.183594 238.449219 " fill-opacity="1" fill-rule="evenodd"/></g><g clip-path="url(#1de2ac7e48)"><path stroke-linecap="butt" transform="matrix(0.0139465, 0, 0, -0.0139454, 32.942011, 356.008477)" fill="none" stroke-linejoin="miter" d="M 5755.753721 7376.766271 L 5791.324827 7425.785666 L 5818.773397 7689.089843 L 5695.815007 7931.665819 " stroke="#2f2e6b" stroke-width="42.027" stroke-opacity="1" stroke-miterlimit="22.926001"/></g><g clip-path="url(#e0fc8289bd)"><path stroke-linecap="butt" transform="matrix(0.0139465, 0, 0, -0.0139454, 32.942011, 356.008477)" fill="none" stroke-linejoin="miter" d="M 5923.80619 7545.112878 L 5937.250387 7738.109237 L 5828.856545 7959.39679 " stroke="#2f2e6b" stroke-width="42.027" stroke-opacity="1" stroke-miterlimit="22.926001"/></g><path stroke-linecap="butt" transform="matrix(0.0139465, 0, 0, -0.0139454, 32.942011, 356.008448)" fill="none" stroke-linejoin="miter" d="M 2290.791902 11913.439972 C 2290.791902 11913.439972 3791.220361 12696.349786 4280.253045 13315.954977 " stroke="#2f2e6b" stroke-width="42.027" stroke-opacity="1" stroke-miterlimit="22.926001"/><path stroke-linecap="butt" transform="matrix(0.0139465, 0, 0, -0.0139454, 32.942011, 356.008448)" fill="none" stroke-linejoin="miter" d="M 3419.824405 11832.768049 C 3419.824405 11832.768049 3930.70391 12370.580873 4092.03428 12747.049849 " stroke="#2f2e6b" stroke-width="42.027" stroke-opacity="1" stroke-miterlimit="22.926001"/><path fill="#ffffff" d="M 45.96875 143.894531 C 41.117188 145.417969 35.136719 165.882812 33.265625 183.03125 L 48.742188 184.738281 C 49.636719 178.996094 49.878906 174.066406 49.878906 174.066406 C 49.878906 174.066406 49.96875 152.886719 45.96875 143.894531 " fill-opacity="1" fill-rule="evenodd"/><g clip-path="url(#643008704c)"><path stroke-linecap="butt" transform="matrix(0.0139465, 0, 0, -0.0139454, 32.942011, 356.008448)" fill="none" stroke-linejoin="miter" d="M 934.048304 15210.344627 C 586.179693 15101.101397 157.36581 13633.600676 23.203923 12403.914063 L 1132.910392 12281.505624 C 1197.050417 12693.268567 1214.415839 13046.768454 1214.415839 13046.768454 C 1214.415839 13046.768454 1220.85785 14565.52946 934.048304 15210.344627 Z M 934.048304 15210.344627 " stroke="#2f2e6b" stroke-width="42.027" stroke-opacity="1" stroke-miterlimit="22.926001"/></g><path fill="#e0bd89" d="M 77.496094 128.453125 C 70.871094 133.554688 63.832031 134.816406 62.746094 126.570312 L 62.746094 122.144531 L 77.496094 128.453125 " fill-opacity="1" fill-rule="evenodd"/><path fill="#f2d291" d="M 69.667969 99.265625 C 66.980469 99.761719 58.890625 101.34375 60.425781 111.902344 C 61.960938 122.46875 64.121094 125.664062 65.652344 127.035156 C 67.613281 128.789062 70.609375 130.597656 77.300781 130.417969 C 81.089844 129.597656 81.363281 127.214844 82.207031 124.78125 C 82.882812 122.835938 84.195312 118.929688 82.378906 108.414062 C 80.558594 97.894531 72.378906 98.902344 69.667969 99.265625 " fill-opacity="1" fill-rule="evenodd"/><path fill="#2f2e6b" d="M 71.632812 114.621094 C 72.152344 114.542969 72.671875 114.992188 72.792969 115.621094 C 72.914062 116.25 72.597656 116.828125 72.078125 116.90625 C 71.5625 116.984375 71.042969 116.535156 70.917969 115.90625 C 70.796875 115.273438 71.117188 114.699219 71.632812 114.621094 " fill-opacity="1" fill-rule="evenodd"/><path fill="#2f2e6b" d="M 80.179688 113.484375 C 79.664062 113.570312 79.308594 114.15625 79.386719 114.792969 C 79.464844 115.429688 79.949219 115.878906 80.464844 115.792969 C 80.980469 115.707031 81.335938 115.121094 81.257812 114.480469 C 81.175781 113.84375 80.695312 113.398438 80.179688 113.484375 " fill-opacity="1" fill-rule="evenodd"/><g clip-path="url(#5bb1692df9)"><path stroke-linecap="butt" transform="matrix(0.0150204, 0, 0, -0.0150192, 32.942011, 356.008448)" fill="none" stroke-linejoin="miter" d="M 3037.491444 16300.048657 C 3024.488311 16297.187729 2982.0981 16255.834317 2984.438664 16204.857785 C 2990.680168 16063.631983 3078.321279 15805.628309 3081.702093 15753.611439 C 3086.383221 15682.608412 2977.677035 15672.725207 2977.677035 15672.725207 " stroke="#2f2e6b" stroke-width="39.023998" stroke-opacity="1" stroke-miterlimit="22.926001"/></g><path stroke-linecap="butt" transform="matrix(0.0142952, 0, 0, -0.014294, 32.942011, 356.008448)" fill="none" stroke-linejoin="miter" d="M 2993.751041 16242.101085 C 2993.751041 16242.101085 3135.844189 16166.949395 3335.594364 16300.036207 " stroke="#2f2e6b" stroke-width="40.998001" stroke-opacity="1" stroke-miterlimit="22.926001"/><g clip-path="url(#12b8ec467e)"><path stroke-linecap="butt" transform="matrix(0.0149674, 0, 0, -0.0149662, 32.942011, 356.008448)" fill="none" stroke-linejoin="miter" d="M 2450.855328 16266.15312 C 2491.307765 16288.338569 2614.49196 16300.083807 2689.916181 16293.558675 " stroke="#2f2e6b" stroke-width="39.160999" stroke-opacity="1" stroke-miterlimit="22.926001"/></g><path stroke-linecap="butt" transform="matrix(0.0143482, 0, 0, -0.014347, 32.942011, 356.008448)" fill="none" stroke-linejoin="miter" d="M 2077.200573 16300.002584 C 2148.256975 16103.968543 2220.67461 16012.213721 2279.752154 15959.121168 C 2416.420022 15836.872162 2625.233279 15710.811382 3091.319713 15723.335779 " stroke="#2f2e6b" stroke-width="40.848999" stroke-opacity="1" stroke-miterlimit="22.926001"/><g clip-path="url(#4d1f8f542b)"><path stroke-linecap="butt" transform="matrix(0.0150455, 0, 0, -0.0150443, 32.942011, 356.008448)" fill="none" stroke-linejoin="miter" d="M 3263.233316 16286.355147 C 3219.615689 16300.11662 3097.07093 16287.134099 3024.894143 16265.842764 " stroke="#2f2e6b" stroke-width="38.956001" stroke-opacity="1" stroke-miterlimit="22.926001"/></g><path stroke-linecap="butt" transform="matrix(0.0141781, 0, 0, -0.0141769, 32.942011, 356.008448)" fill="none" stroke-linejoin="miter" d="M 3091.498698 16299.98179 C 3091.498698 16299.98179 3148.530072 16279.867595 3250.194697 16285.65387 " stroke="#2f2e6b" stroke-width="41.341999" stroke-opacity="1" stroke-miterlimit="22.926001"/><path fill="#2f2e6b" d="M 60.363281 116.195312 L 63.042969 116.988281 C 63.042969 116.988281 62.222656 112.789062 62.582031 111.339844 C 62.945312 109.890625 62.746094 106.917969 65.09375 105.429688 C 67.445312 103.945312 74.804688 106.34375 79.3125 104.125 C 81.253906 103.167969 82.300781 106.945312 82.902344 111.933594 C 82.902344 111.933594 83.835938 109.691406 83.835938 106.792969 C 83.835938 103.894531 83.902344 101.707031 82.816406 100.621094 C 81.730469 99.535156 81.398438 100.214844 80.03125 99.773438 C 78.660156 99.332031 79.164062 95.738281 75.359375 95.195312 C 71.554688 94.648438 60.113281 98.480469 57.941406 101.019531 C 55.765625 103.554688 56.976562 110.59375 58.425781 112.222656 C 59.601562 113.546875 58.730469 114.25 60.363281 116.195312 " fill-opacity="1" fill-rule="evenodd"/><path fill="#f2d291" d="M 61.96875 116.335938 C 61.527344 115.757812 61.027344 115.308594 60.171875 115.269531 C 59.320312 115.226562 57.886719 115.886719 58.261719 118.226562 C 58.636719 120.570312 60.910156 122.273438 62.101562 121.796875 C 63.292969 121.324219 61.96875 116.335938 61.96875 116.335938 " fill-opacity="1" fill-rule="evenodd"/><path stroke-linecap="butt" transform="matrix(0.0147164, 0, 0, -0.0147152, 32.942011, 356.008448)" fill="none" stroke-linejoin="miter" d="M 1922.507435 16200.123856 C 1919.32221 16220.033176 1827.481566 16299.935912 1771.209265 16226.669616 " stroke="#2f2e6b" stroke-width="29.874001" stroke-opacity="1" stroke-miterlimit="22.926001"/><g clip-path="url(#8fd311db9e)"><path stroke-linecap="butt" transform="matrix(0.0160804, 0, 0, -0.016079, 32.942011, 356.008448)" fill="none" stroke-linejoin="miter" d="M 1665.669 15920.928152 C 1735.873054 16029.765673 2181.632363 16254.486001 2462.205661 16299.915948 " stroke="#2f2e6b" stroke-width="36.452" stroke-opacity="1" stroke-miterlimit="22.926001"/></g></svg>